<?xml version="1.0" encoding="UTF-8" standalone="no"?>
<svg
   xmlns:dc="http://purl.org/dc/elements/1.1/"
   xmlns:cc="http://creativecommons.org/ns#"
   xmlns:rdf="http://www.w3.org/1999/02/22-rdf-syntax-ns#"
   xmlns:svg="http://www.w3.org/2000/svg"
   xmlns="http://www.w3.org/2000/svg"
   height="392"
   width="392"
   xml:space="preserve"
   viewBox="0 0 392 392"
   y="0px"
   x="0px"
   id="Capa_1"
   version="1.1"><metadata
   id="metadata61"><rdf:RDF><cc:Work
       rdf:about=""><dc:format>image/svg+xml</dc:format><dc:type
         rdf:resource="http://purl.org/dc/dcmitype/StillImage" /><dc:title></dc:title></cc:Work></rdf:RDF></metadata><defs
   id="defs59" />



<g
   style="fill:#71c837"
   transform="translate(-38)"
   id="g12">
	<path
   id="path8"
   d="M 234,392 C 125.752,392 38,304.248 38,196 38,87.752 125.752,0 234,0 342.248,0 430,87.752 430,196 429.877,304.197 342.197,391.877 234,392 Z M 234,16 C 134.589,16 54,96.589 54,196 c 0,99.411 80.589,180 180,180 99.411,0 180,-80.589 180,-180 C 413.885,96.636 333.364,16.115 234,16 Z"
   style="fill:#71c837" />
	<path
   id="path10"
   d="m 234,36 h 16 c 44.183,0 80,35.817 80,80 0,44.183 -35.817,80 -80,80 h -16 v 0 z"
   style="fill:#71c837" />
</g>
<g
   style="fill:#5aa02c"
   transform="translate(-38)"
   id="g18">
	<path
   id="path14"
   d="m 394,196 v 16 c 0,44.183 -35.817,80 -80,80 -44.183,0 -80,-35.817 -80,-80 v -16 0 z"
   style="fill:#5aa02c" />
	<path
   id="path16"
   d="m 74,196 v -16 c 0,-44.183 35.817,-80 80,-80 44.183,0 80,35.817 80,80 v 16 0 z"
   style="fill:#5aa02c" />
</g>
<path
   id="path20"
   d="m 196,356 h -16 c -44.183,0 -80,-35.817 -80,-80 0,-44.183 35.817,-80 80,-80 h 16 v 0 z"
   style="fill:#8dd35f" />
<circle
   id="circle22"
   r="32"
   cy="196"
   cx="196"
   style="fill:#66ff00" />

<g
   transform="translate(-38)"
   id="g26">
</g>
<g
   transform="translate(-38)"
   id="g28">
</g>
<g
   transform="translate(-38)"
   id="g30">
</g>
<g
   transform="translate(-38)"
   id="g32">
</g>
<g
   transform="translate(-38)"
   id="g34">
</g>
<g
   transform="translate(-38)"
   id="g36">
</g>
<g
   transform="translate(-38)"
   id="g38">
</g>
<g
   transform="translate(-38)"
   id="g40">
</g>
<g
   transform="translate(-38)"
   id="g42">
</g>
<g
   transform="translate(-38)"
   id="g44">
</g>
<g
   transform="translate(-38)"
   id="g46">
</g>
<g
   transform="translate(-38)"
   id="g48">
</g>
<g
   transform="translate(-38)"
   id="g50">
</g>
<g
   transform="translate(-38)"
   id="g52">
</g>
<g
   transform="translate(-38)"
   id="g54">
</g>
</svg>
