<?xml version="1.0" encoding="UTF-8" standalone="no"?>
<!-- Generator: Adobe Illustrator 19.0.0, SVG Export Plug-In . SVG Version: 6.00 Build 0)  -->

<svg
   xmlns:dc="http://purl.org/dc/elements/1.1/"
   xmlns:cc="http://creativecommons.org/ns#"
   xmlns:rdf="http://www.w3.org/1999/02/22-rdf-syntax-ns#"
   xmlns:svg="http://www.w3.org/2000/svg"
   xmlns="http://www.w3.org/2000/svg"
   xmlns:sodipodi="http://sodipodi.sourceforge.net/DTD/sodipodi-0.dtd"
   xmlns:inkscape="http://www.inkscape.org/namespaces/inkscape"
   version="1.1"
   id="Capa_1"
   x="0px"
   y="0px"
   viewBox="0 0 392 392"
   xml:space="preserve"
   sodipodi:docname="fan.svg"
   width="392"
   height="392"
   inkscape:version="0.92.2 2405546, 2018-03-11"><metadata
   id="metadata61"><rdf:RDF><cc:Work
       rdf:about=""><dc:format>image/svg+xml</dc:format><dc:type
         rdf:resource="http://purl.org/dc/dcmitype/StillImage" /><dc:title></dc:title></cc:Work></rdf:RDF></metadata><defs
   id="defs59" /><sodipodi:namedview
   pagecolor="#ffffff"
   bordercolor="#666666"
   borderopacity="1"
   objecttolerance="10"
   gridtolerance="10"
   guidetolerance="10"
   inkscape:pageopacity="0"
   inkscape:pageshadow="2"
   inkscape:window-width="766"
   inkscape:window-height="798"
   id="namedview57"
   showgrid="false"
   fit-margin-top="0"
   fit-margin-left="0"
   fit-margin-right="0"
   fit-margin-bottom="0"
   inkscape:zoom="1.4263009"
   inkscape:cx="210.20475"
   inkscape:cy="233.11975"
   inkscape:window-x="513"
   inkscape:window-y="1"
   inkscape:window-maximized="0"
   inkscape:current-layer="Capa_1" />


<circle
   style="fill:#ebebeb"
   cx="196"
   cy="196"
   r="188"
   id="circle6" />
<g
   id="g12"
   transform="translate(-38)">
	<path
   style="fill:#6fbbc6"
   d="M 234,392 C 125.752,392 38,304.248 38,196 38,87.752 125.752,0 234,0 342.248,0 430,87.752 430,196 429.877,304.197 342.197,391.877 234,392 Z M 234,16 C 134.589,16 54,96.589 54,196 c 0,99.411 80.589,180 180,180 99.411,0 180,-80.589 180,-180 C 413.885,96.636 333.364,16.115 234,16 Z"
   id="path8"
   inkscape:connector-curvature="0" />
	<path
   style="fill:#6fbbc6"
   d="m 234,36 h 16 c 44.183,0 80,35.817 80,80 0,44.183 -35.817,80 -80,80 h -16 v 0 z"
   id="path10"
   inkscape:connector-curvature="0" />
</g>
<g
   id="g18"
   transform="translate(-38)">
	<path
   style="fill:#3b869e"
   d="m 394,196 v 16 c 0,44.183 -35.817,80 -80,80 -44.183,0 -80,-35.817 -80,-80 v -16 0 z"
   id="path14"
   inkscape:connector-curvature="0" />
	<path
   style="fill:#3b869e"
   d="m 74,196 v -16 c 0,-44.183 35.817,-80 80,-80 44.183,0 80,35.817 80,80 v 16 0 z"
   id="path16"
   inkscape:connector-curvature="0" />
</g>
<path
   style="fill:#6fbbc6"
   d="m 196,356 h -16 c -44.183,0 -80,-35.817 -80,-80 0,-44.183 35.817,-80 80,-80 h 16 v 0 z"
   id="path20"
   inkscape:connector-curvature="0" />
<circle
   style="fill:#8aced8"
   cx="196"
   cy="196"
   r="32"
   id="circle22" />

<g
   id="g26"
   transform="translate(-38)">
</g>
<g
   id="g28"
   transform="translate(-38)">
</g>
<g
   id="g30"
   transform="translate(-38)">
</g>
<g
   id="g32"
   transform="translate(-38)">
</g>
<g
   id="g34"
   transform="translate(-38)">
</g>
<g
   id="g36"
   transform="translate(-38)">
</g>
<g
   id="g38"
   transform="translate(-38)">
</g>
<g
   id="g40"
   transform="translate(-38)">
</g>
<g
   id="g42"
   transform="translate(-38)">
</g>
<g
   id="g44"
   transform="translate(-38)">
</g>
<g
   id="g46"
   transform="translate(-38)">
</g>
<g
   id="g48"
   transform="translate(-38)">
</g>
<g
   id="g50"
   transform="translate(-38)">
</g>
<g
   id="g52"
   transform="translate(-38)">
</g>
<g
   id="g54"
   transform="translate(-38)">
</g>
</svg>