<?xml version="1.0" encoding="UTF-8" standalone="no"?>
<!-- Generator: Adobe Illustrator 19.0.0, SVG Export Plug-In . SVG Version: 6.00 Build 0)  -->

<svg
   xmlns:dc="http://purl.org/dc/elements/1.1/"
   xmlns:cc="http://creativecommons.org/ns#"
   xmlns:rdf="http://www.w3.org/1999/02/22-rdf-syntax-ns#"
   xmlns:svg="http://www.w3.org/2000/svg"
   xmlns="http://www.w3.org/2000/svg"
   xmlns:sodipodi="http://sodipodi.sourceforge.net/DTD/sodipodi-0.dtd"
   xmlns:inkscape="http://www.inkscape.org/namespaces/inkscape"
   version="1.1"
   id="Layer_1"
   x="0px"
   y="0px"
   viewBox="0 0 511.269 511.269"
   style="enable-background:new 0 0 511.269 511.269;"
   xml:space="preserve"
   sodipodi:docname="flame-cold.svg"
   inkscape:version="0.92.2 2405546, 2018-03-11"><metadata
   id="metadata4077"><rdf:RDF><cc:Work
       rdf:about=""><dc:format>image/svg+xml</dc:format><dc:type
         rdf:resource="http://purl.org/dc/dcmitype/StillImage" /></cc:Work></rdf:RDF></metadata><defs
   id="defs4075" /><sodipodi:namedview
   pagecolor="#ffffff"
   bordercolor="#666666"
   borderopacity="1"
   objecttolerance="10"
   gridtolerance="10"
   guidetolerance="10"
   inkscape:pageopacity="0"
   inkscape:pageshadow="2"
   inkscape:window-width="1113"
   inkscape:window-height="1174"
   id="namedview4073"
   showgrid="false"
   inkscape:zoom="1.8991959"
   inkscape:cx="255.63451"
   inkscape:cy="255.63451"
   inkscape:window-x="743"
   inkscape:window-y="1"
   inkscape:window-maximized="1"
   inkscape:current-layer="Layer_1" />
<path
   style="fill:#0055d4"
   d="M140.367,465.067C116.9,438.4,93.434,410.667,78.5,377.6c-14.933-35.2-19.2-75.733-11.733-114.133  s24.533-74.667,49.067-105.6c-2.133,26.667,7.467,54.4,25.6,74.667c-10.667-51.2,6.4-106.667,40.533-147.2S263.034,18.133,312.1,0  c-24.533,25.6-27.733,66.133-18.133,100.267c9.6,34.133,29.867,64,48,94.933c18.133,30.933,35.2,62.933,36.267,98.133  c9.6-18.133,20.267-36.267,26.667-56.533c6.4-20.267,9.6-41.6,4.267-61.867c19.2,23.467,29.867,46.933,35.2,76.8  c5.333,29.867,4.267,60.8,1.067,90.667c-4.267,33.067-12.8,67.2-30.933,94.933c-21.333,33.067-55.467,56.533-92.8,69.333  C255.567,518.4,190.5,508.8,140.367,465.067z"
   id="path4038" />
<path
   style="fill:#5599ff"
   d="M221.434,504.533C308.9,538.667,395.3,435.2,347.3,355.2c0-1.067-1.067-1.067-1.067-2.133  c4.267,43.733-6.4,75.733-26.667,93.867c10.667-25.6,3.2-55.467-9.6-81.067c-12.8-24.533-30.933-46.933-44.8-70.4  c-13.867-24.533-24.533-52.267-18.133-80c-25.6,19.2-43.733,48-51.2,78.933c-7.467,30.933-3.2,65.067,10.667,93.867  c-16-11.733-27.733-30.933-28.8-51.2c-17.067,20.267-27.733,46.933-26.667,73.6C151.034,452.267,184.1,489.6,221.434,504.533z"
   id="path4040" />
<g
   id="g4042">
</g>
<g
   id="g4044">
</g>
<g
   id="g4046">
</g>
<g
   id="g4048">
</g>
<g
   id="g4050">
</g>
<g
   id="g4052">
</g>
<g
   id="g4054">
</g>
<g
   id="g4056">
</g>
<g
   id="g4058">
</g>
<g
   id="g4060">
</g>
<g
   id="g4062">
</g>
<g
   id="g4064">
</g>
<g
   id="g4066">
</g>
<g
   id="g4068">
</g>
<g
   id="g4070">
</g>
</svg>