<?xml version="1.0" encoding="UTF-8" standalone="no"?>
<!-- Generator: Adobe Illustrator 19.0.0, SVG Export Plug-In . SVG Version: 6.00 Build 0)  -->

<svg
   xmlns:dc="http://purl.org/dc/elements/1.1/"
   xmlns:cc="http://creativecommons.org/ns#"
   xmlns:rdf="http://www.w3.org/1999/02/22-rdf-syntax-ns#"
   xmlns:svg="http://www.w3.org/2000/svg"
   xmlns="http://www.w3.org/2000/svg"
   xmlns:sodipodi="http://sodipodi.sourceforge.net/DTD/sodipodi-0.dtd"
   xmlns:inkscape="http://www.inkscape.org/namespaces/inkscape"
   version="1.1"
   id="Capa_1"
   x="0px"
   y="0px"
   viewBox="0 0 392 392"
   xml:space="preserve"
   sodipodi:docname="voltmeter-missing.svg"
   width="392"
   height="392"
   inkscape:version="0.92.2 2405546, 2018-03-11"><metadata
   id="metadata61"><rdf:RDF><cc:Work
       rdf:about=""><dc:format>image/svg+xml</dc:format><dc:type
         rdf:resource="http://purl.org/dc/dcmitype/StillImage" /><dc:title /></cc:Work></rdf:RDF></metadata><defs
   id="defs59"><marker
   inkscape:stockid="Arrow2Mend"
   orient="auto"
   refY="0.0"
   refX="0.0"
   id="Arrow2Mend"
   style="overflow:visible;"
   inkscape:isstock="true"><path
     id="path933"
     style="fill-rule:evenodd;stroke-width:0.625;stroke-linejoin:round;stroke:#cccccc;stroke-opacity:0.78431373;fill:#cccccc;fill-opacity:0.78431373"
     d="M 8.7185878,4.0337352 L -2.2072895,0.016013256 L 8.7185884,-4.0017078 C 6.9730900,-1.6296469 6.9831476,1.6157441 8.7185878,4.0337352 z "
     transform="scale(0.6) rotate(180) translate(0,0)" /></marker><marker
   inkscape:stockid="Arrow1Mend"
   orient="auto"
   refY="0.0"
   refX="0.0"
   id="marker1266"
   style="overflow:visible;"
   inkscape:isstock="true"><path
     id="path1264"
     d="M 0.0,0.0 L 5.0,-5.0 L -12.5,0.0 L 5.0,5.0 L 0.0,0.0 z "
     style="fill-rule:evenodd;stroke:#000000;stroke-width:1pt;stroke-opacity:1;fill:#000000;fill-opacity:1"
     transform="scale(0.4) rotate(180) translate(10,0)" /></marker><marker
   inkscape:stockid="Arrow1Mend"
   orient="auto"
   refY="0.0"
   refX="0.0"
   id="Arrow1Mend"
   style="overflow:visible;"
   inkscape:isstock="true"><path
     id="path915"
     d="M 0.0,0.0 L 5.0,-5.0 L -12.5,0.0 L 5.0,5.0 L 0.0,0.0 z "
     style="fill-rule:evenodd;stroke:#000000;stroke-width:1pt;stroke-opacity:1;fill:#000000;fill-opacity:1"
     transform="scale(0.4) rotate(180) translate(10,0)" /></marker><marker
   inkscape:stockid="Arrow1Send"
   orient="auto"
   refY="0.0"
   refX="0.0"
   id="Arrow1Send"
   style="overflow:visible;"
   inkscape:isstock="true"><path
     id="path921"
     d="M 0.0,0.0 L 5.0,-5.0 L -12.5,0.0 L 5.0,5.0 L 0.0,0.0 z "
     style="fill-rule:evenodd;stroke:#000000;stroke-width:1pt;stroke-opacity:1;fill:#000000;fill-opacity:1"
     transform="scale(0.2) rotate(180) translate(6,0)" /></marker><marker
   inkscape:stockid="Arrow2Lend"
   orient="auto"
   refY="0.0"
   refX="0.0"
   id="Arrow2Lend"
   style="overflow:visible;"
   inkscape:isstock="true"><path
     id="path927"
     style="fill-rule:evenodd;stroke-width:0.625;stroke-linejoin:round;stroke:#000000;stroke-opacity:1;fill:#000000;fill-opacity:1"
     d="M 8.7185878,4.0337352 L -2.2072895,0.016013256 L 8.7185884,-4.0017078 C 6.9730900,-1.6296469 6.9831476,1.6157441 8.7185878,4.0337352 z "
     transform="scale(1.1) rotate(180) translate(1,0)" /></marker>
	
	
</defs><sodipodi:namedview
   pagecolor="#ffffff"
   bordercolor="#666666"
   borderopacity="1"
   objecttolerance="10"
   gridtolerance="10"
   guidetolerance="10"
   inkscape:pageopacity="0"
   inkscape:pageshadow="2"
   inkscape:window-width="1150"
   inkscape:window-height="1198"
   id="namedview57"
   showgrid="false"
   fit-margin-top="0"
   fit-margin-left="0"
   fit-margin-right="0"
   fit-margin-bottom="0"
   inkscape:zoom="1.7831633"
   inkscape:cx="196"
   inkscape:cy="218.43205"
   inkscape:window-x="769"
   inkscape:window-y="1"
   inkscape:window-maximized="1"
   inkscape:current-layer="Capa_1" />



<path
   inkscape:connector-curvature="0"
   id="path8"
   d="M 196,392 C 87.752,392 0,304.248 0,196 0,87.752 87.752,0 196,0 304.248,0 392,87.752 392,196 391.877,304.197 304.197,391.877 196,392 Z M 196,16 C 96.589,16 16,96.589 16,196 16,295.411 96.589,376 196,376 295.411,376 376,295.411 376,196 375.885,96.636 295.364,16.115 196,16 Z"
   style="fill:#999999;stroke:#999999;stroke-opacity:0.50196081;fill-opacity:0.50196081" />




<g
   id="g26"
   transform="translate(-38)">
</g>
<g
   id="g28"
   transform="translate(-38)">
</g>
<g
   id="g30"
   transform="translate(-38)">
</g>
<g
   id="g32"
   transform="translate(-38)">
</g>
<g
   id="g34"
   transform="translate(-38)">
</g>
<g
   id="g36"
   transform="translate(-38)">
</g>
<g
   id="g38"
   transform="translate(-38)">
</g>
<g
   id="g40"
   transform="translate(-38)">
</g>
<g
   id="g42"
   transform="translate(-38)">
</g>
<g
   id="g44"
   transform="translate(-38)">
</g>
<g
   id="g46"
   transform="translate(-38)">
</g>
<g
   id="g48"
   transform="translate(-38)">
</g>
<g
   id="g50"
   transform="translate(-38)">
</g>
<g
   id="g52"
   transform="translate(-38)">
</g>
<g
   id="g54"
   transform="translate(-38)">
</g>
<path
   style="fill:#999999;fill-opacity:0.9951691;fill-rule:evenodd;stroke:#999999;stroke-width:14;stroke-linecap:round;stroke-linejoin:round;stroke-miterlimit:4;stroke-dasharray:none;stroke-opacity:0.50196081"
   d="M 199.11647,303.65959 50.784794,267.8707"
   id="path904"
   inkscape:connector-curvature="0"
   sodipodi:nodetypes="cc" /><path
   style="opacity:1;fill:none;fill-opacity:0.8;fill-rule:evenodd;stroke:#999999;stroke-width:9.23011303;stroke-linecap:round;stroke-linejoin:round;stroke-miterlimit:4;stroke-dasharray:none;stroke-dashoffset:0;stroke-opacity:0.50196081;paint-order:stroke fill markers"
   id="path85"
   sodipodi:type="arc"
   sodipodi:cx="197.01312"
   sodipodi:cy="-316.40732"
   sodipodi:rx="103.19896"
   sodipodi:ry="70.370369"
   sodipodi:start="0"
   sodipodi:end="3.1415927"
   d="m 300.21208,-316.40732 a 103.19896,70.370369 0 0 1 -51.59948,60.94253 103.19896,70.370369 0 0 1 -103.19896,0 103.19896,70.370369 0 0 1 -51.599477,-60.94253"
   transform="scale(1,-1)"
   sodipodi:open="true" /></svg>